HIERARCHY
ROOT hip
{
  OFFSET 0 0 0
  CHANNELS 6 Xposition Yposition Zposition Zrotation Yrotation Xrotation
  JOINT abdomen
  {
    OFFSET 0 20.6881 -0.73152
    CHANNELS 3 Zrotation Xrotation Yrotation
    JOINT chest
    {
      OFFSET 0 11.7043 -0.48768
      CHANNELS 3 Zrotation Xrotation Yrotation
      JOINT neck
      {
        OFFSET 0 22.1894 -2.19456
        CHANNELS 3 Zrotation Xrotation Yrotation
        JOINT head
        {
          OFFSET -0.24384 7.07133 1.2192
          CHANNELS 3 Zrotation Xrotation Yrotation
          JOINT leftEye
          {
            OFFSET 4.14528 8.04674 8.04672
            CHANNELS 3 Zrotation Xrotation Yrotation
            End Site
            {
              OFFSET 1 0 0
            }
          }
          JOINT rightEye
          {
            OFFSET -3.6576 8.04674 8.04672
            CHANNELS 3 Zrotation Xrotation Yrotation
            End Site
            {
              OFFSET 1 0 0
            }
          }
        }
      }
      JOINT rCollar
      {
        OFFSET -2.68224 19.2634 -4.8768
        CHANNELS 3 Zrotation Xrotation Yrotation
        JOINT rShldr
        {
          OFFSET -8.77824 -1.95073 1.46304
          CHANNELS 3 Zrotation Xrotation Yrotation
          JOINT rForeArm
          {
            OFFSET -28.1742 -1.7115 0.48768
            CHANNELS 3 Zrotation Xrotation Yrotation
            JOINT rHand
            {
              OFFSET -22.5879 0.773209 7.07136
              CHANNELS 3 Zrotation Xrotation Yrotation
              JOINT rThumb1
              {
                OFFSET -1.2192 -0.487915 3.41376
                CHANNELS 3 Zrotation Xrotation Yrotation
                JOINT rThumb2
                {
                  OFFSET -3.37035 -0.52449 3.41376
                  CHANNELS 3 Zrotation Xrotation Yrotation
                  End Site
                  {
                    OFFSET -1.78271 -1.18214 1.43049
                  }
                }
              }
              JOINT rIndex1
              {
                OFFSET -7.75947 0.938293 5.60832
                CHANNELS 3 Zrotation Xrotation Yrotation
                JOINT rIndex2
                {
                  OFFSET -2.54057 -0.884171 1.56538
                  CHANNELS 3 Zrotation Xrotation Yrotation
                  End Site
                  {
                    OFFSET -1.62519 -0.234802 1.16502
                  }
                }
              }
              JOINT rMid1
              {
                OFFSET -8.24714 1.18213 3.41376
                CHANNELS 3 Zrotation Xrotation Yrotation
                JOINT rMid2
                {
                  OFFSET -3.10165 -0.590103 1.0647
                  CHANNELS 3 Zrotation Xrotation Yrotation
                  End Site
                  {
                    OFFSET -2.48547 -0.328903 0.83742
                  }
                }
              }
              JOINT rRing1
              {
                OFFSET -8.82822 0.546677 1.51678
                CHANNELS 3 Zrotation Xrotation Yrotation
                JOINT rRing2
                {
                  OFFSET -2.60934 -0.819778 -0.0198488
                  CHANNELS 3 Zrotation Xrotation Yrotation
                  End Site
                  {
                    OFFSET -2.33842 -0.294052 0.168128
                  }
                }
              }
              JOINT rPinky1
              {
                OFFSET -8.27202 -0.0477905 -0.4584
                CHANNELS 3 Zrotation Xrotation Yrotation
                JOINT rPinky2
                {
                  OFFSET -1.82734 -0.647385 -0.700984
                  CHANNELS 3 Zrotation Xrotation Yrotation
                  End Site
                  {
                    OFFSET -1.69225 -0.51767 -0.607171
                  }
                }
              }
            }
          }
        }
      }
      JOINT lCollar
      {
        OFFSET 2.68224 19.2634 -4.8768
        CHANNELS 3 Zrotation Xrotation Yrotation
        JOINT lShldr
        {
          OFFSET 8.77824 -1.95073 1.46304
          CHANNELS 3 Zrotation Xrotation Yrotation
          JOINT lForeArm
          {
            OFFSET 28.1742 -1.7115 0.48768
            CHANNELS 3 Zrotation Xrotation Yrotation
            JOINT lHand
            {
              OFFSET 22.5879 0.773209 7.07136
              CHANNELS 3 Zrotation Xrotation Yrotation
              JOINT lThumb1
              {
                OFFSET 1.2192 -0.487915 3.41376
                CHANNELS 3 Zrotation Xrotation Yrotation
                JOINT lThumb2
                {
                  OFFSET 3.37035 -0.52449 3.41376
                  CHANNELS 3 Zrotation Xrotation Yrotation
                  End Site
                  {
                    OFFSET 1.78271 -1.18214 1.43049
                  }
                }
              }
              JOINT lIndex1
              {
                OFFSET 7.75947 0.938293 5.60832
                CHANNELS 3 Zrotation Xrotation Yrotation
                JOINT lIndex2
                {
                  OFFSET 2.54057 -0.884171 1.56538
                  CHANNELS 3 Zrotation Xrotation Yrotation
                  End Site
                  {
                    OFFSET 1.62519 -0.234802 1.16502
                  }
                }
              }
              JOINT lMid1
              {
                OFFSET 8.24714 1.18213 3.41376
                CHANNELS 3 Zrotation Xrotation Yrotation
                JOINT lMid2
                {
                  OFFSET 3.10165 -0.590103 1.0647
                  CHANNELS 3 Zrotation Xrotation Yrotation
                  End Site
                  {
                    OFFSET 2.48547 -0.328903 0.83742
                  }
                }
              }
              JOINT lRing1
              {
                OFFSET 8.82822 0.546677 1.51678
                CHANNELS 3 Zrotation Xrotation Yrotation
                JOINT lRing2
                {
                  OFFSET 2.60934 -0.819778 -0.0198488
                  CHANNELS 3 Zrotation Xrotation Yrotation
                  End Site
                  {
                    OFFSET 2.33842 -0.294052 0.168128
                  }
                }
              }
              JOINT lPinky1
              {
                OFFSET 8.27202 -0.0477905 -0.4584
                CHANNELS 3 Zrotation Xrotation Yrotation
                JOINT lPinky2
                {
                  OFFSET 1.82734 -0.647385 -0.700984
                  CHANNELS 3 Zrotation Xrotation Yrotation
                  End Site
                  {
                    OFFSET 1.69225 -0.51767 -0.607171
                  }
                }
              }
            }
          }
        }
      }
    }
  }
  JOINT rButtock
  {
    OFFSET -8.77824 4.35084 1.2192
    CHANNELS 3 Zrotation Xrotation Yrotation
    JOINT rThigh
    {
      OFFSET 0 -1.70687 -2.19456
      CHANNELS 3 Zrotation Xrotation Yrotation
      JOINT rShin
      {
        OFFSET 0 -36.8199 0.73152
        CHANNELS 3 Zrotation Xrotation Yrotation
        JOINT rFoot
        {
          OFFSET 0.73152 -45.1104 -5.12064
          CHANNELS 3 Zrotation Xrotation Yrotation
          End Site
          {
            OFFSET -1.1221 -3.69964 12.103
          }
        }
      }
    }
  }
  JOINT lButtock
  {
    OFFSET 8.77824 4.35084 1.2192
    CHANNELS 3 Zrotation Xrotation Yrotation
    JOINT lThigh
    {
      OFFSET 0 -1.70687 -2.19456
      CHANNELS 3 Zrotation Xrotation Yrotation
      JOINT lShin
      {
        OFFSET 0 -36.8199 0.73152
        CHANNELS 3 Zrotation Xrotation Yrotation
        JOINT lFoot
        {
          OFFSET -0.73152 -45.1104 -5.12064
          CHANNELS 3 Zrotation Xrotation Yrotation
          End Site
          {
            OFFSET 1.1221 -3.69964 12.103
          }
        }
      }
    }
  }
}
MOTION
Frames:	4
Frame Time:	0.03333
9.460260120431485 55.29379844665527 -73.85448009858919 13.708100017982735 26.642899678514965 12.86919996242249 -18.656999812253744 7.907590039879732 2.7837900184190287 5.804030086846498 -9.597759623587114 1.0864299530629151 -8.20503965559191 16.0379996335055 -12.055399998288395 7.9612599588304 -24.73790015484317 -21.922400556315537 -0.0 0.0 0.0 -0.0 0.0 0.0 -3.020759908408094e-13 6.268770099380583e-13 1.296429948025585e-13 33.438400025280515 -19.268800346779297 63.13770178189676 -9.05688035830839 -3.591599906651022 16.047899992707432 -0.9317000215442098 26.311000296176537 3.9848698193424856 -3.0043000693121966e-09 -1.693399988085648e-08 -5.785970156839654e-10 -5.200189808711437e-09 -2.9042299990707753e-08 -9.37441954608248e-10 -3.0043000693121966e-09 -1.693399988085648e-08 -5.786009913773174e-10 7.730910121524428 5.474879855648998 0.41731399283890674 -3.0043000693121966e-09 -1.693399988085648e-08 -5.785999974539794e-10 2.90554006136521 0.9651829962377875 0.10290200252939893 -3.0043000693121966e-09 -1.693399988085648e-08 -5.785960217606276e-10 10.278599710243157 0.7318009818271524 0.025912300303053633 -3.004310008545576e-09 -1.693399988085648e-08 -5.785869770582521e-10 2.221669932038622 -0.7334870246959406 -0.20891999872313852 -3.022100103377708e-13 6.268700214145883e-13 1.2943900514092426e-13 -111.2689998440336 46.89929927550121 49.32289969492644 27.90349988230003 -40.896201617747394 -85.54279863704626 21.55179961459252 -73.60989808152205 28.54289950371431 -1.0165999970898473e-09 -2.3100400457016337e-09 8.330930245184537e-10 -1.7833000359484218e-09 -3.918809926490091e-09 1.3590399828403093e-09 -1.0166100357155606e-09 -2.310049984935013e-09 8.331139963008846e-10 -7.730910121524428 5.474879855648998 -0.41731399283890674 -1.0165999970898473e-09 -2.310049984935013e-09 8.330979941351435e-10 -2.90554006136521 0.9651829962377875 -0.10290200252939893 -1.0165999970898473e-09 -2.3100400457016337e-09 8.331009759051573e-10 -10.278599710243157 0.7318009818271524 -0.025912300303053633 -1.0165999970898473e-09 -2.3100400457016337e-09 8.330960062884675e-10 -2.221669932038622 -0.7334870246959406 0.20891999872313852 -2.0321699793705798e-16 0.0 -3.882510030490358e-19 -72.3589967463584 -59.301000109993005 -62.09949936767648 -1.6278700409055213 66.69569758471815 2.1044100981414897 0.7980450122355491 1.7630599751475837 10.541199993262637 2.0321699793705798e-16 0.0 3.882510030490358e-19 8.279919873236405 11.197799738554302 2.6793799047848057 -0.18742100447495813 26.5926004579197 -2.520620054934087 5.137310135638989 -11.852100271416612 33.14359881541901
9.383780120151641 55.31110167503357 -73.85388009856797 13.731400354562586 26.50000016824725 12.94940004365678 -18.87980058297956 7.957499939692308 2.786839911326851 5.873000056424817 -9.665739642622606 1.0918900489741057 -8.163999610190242 16.054299879959732 -12.081800386977788 8.008370334856917 -25.01669993902663 -21.96160071950953 -0.0 0.0 0.0 -0.0 0.0 0.0 -8.072249941202284e-14 2.147570107793031e-13 1.019909968354939e-13 33.45269902630794 -19.308599859072963 63.24410246878722 -9.052259735334877 -3.592349946799254 16.039000256218905 -0.9516310471508359 26.565699757873606 4.029630183407694 -3.2442100046813264e-10 -5.967830198440053e-09 -1.0221400263832877e-09 -5.825490039641846e-10 -1.0399699773859712e-08 -1.7625999921581192e-09 -3.244179938500353e-10 -5.967830198440053e-09 -1.0221499656166673e-09 7.730910121524428 5.474879855648998 0.41731399283890674 -3.2442100046813264e-10 -5.9678500769068125e-09 -1.0221499656166673e-09 2.90554006136521 0.9651829962377875 0.10290200252939893 -3.2442000654479466e-10 -5.967830198440053e-09 -1.0221400263832877e-09 10.278599710243157 0.7318009818271524 0.025912300303053633 -3.244309893976791e-10 -5.967830198440053e-09 -1.0221299877575744e-09 2.221669932038622 -0.7334870246959406 -0.20891999872313852 -8.068590066020462e-14 2.1475499672566416e-13 1.0179700464493481e-13 -111.36999785129058 47.3818999516868 49.40270021009428 27.886299758422645 -40.976200208401174 -85.68910128906793 22.28589980884903 -73.98070222137287 29.307501615256804 -6.44384006284692e-10 -2.004849921241802e-09 7.807630104711662e-10 -1.1467999786689081e-09 -3.4430999287542856e-09 1.2910700384124271e-09 -6.443910134442246e-10 -2.004860059259849e-09 7.807800065602452e-10 -7.730910121524428 5.474879855648998 -0.41731399283890674 -6.443830123613541e-10 -2.004879937726608e-09 7.807640043945042e-10 -2.90554006136521 0.9651829962377875 -0.10290200252939893 -6.443920073675626e-10 -2.004849921241802e-09 7.807640043945042e-10 -10.278599710243157 0.7318009818271524 -0.025912300303053633 -6.443830123613541e-10 -2.004849921241802e-09 7.807540154649576e-10 -2.221669932038622 -0.7334870246959406 0.20891999872313852 -2.0321699793705798e-16 0.0 -3.882510030490358e-19 -72.47689947181117 -59.37719770037367 -62.30680243917554 -1.6191500237695307 66.60269772897925 2.0928199074502127 0.7942839792412522 1.6908100206637773 10.442000033304664 2.0321699793705798e-16 0.0 3.882510030490358e-19 8.179820035855284 11.248500232763307 2.675750086127767 -0.19033199908270584 26.375999791412962 -2.5192100477573027 5.082789858136654 -11.768199935199469 33.153000570811535
9.314540122613835 55.30869960784912 -73.84958009856746 13.697500418164521 26.338000033965596 13.04409976272536 -18.966699372242342 7.919110007688605 2.804530101277184 5.8933599965669785 -9.683749997690283 1.10208005088553 -8.138240405509185 16.09900005298288 -12.096900227685394 8.07012036759571 -25.322600206289405 -21.976200248860433 -0.0 0.0 0.0 -0.0 0.0 0.0 -3.616139885723871e-14 1.2430900426407136e-13 -2.3530899648787257e-13 33.39960113570026 -19.352700682996442 63.332696852511454 -9.063399773871168 -3.5978900839897805 16.058599484042258 -0.9657529968683662 26.743400789509828 4.060999961605094 7.230400180882889e-10 7.667510271258118e-09 1.0335700453774635e-09 1.2653199695342971e-09 1.3226099691542266e-08 1.7635299068331122e-09 7.230420059349649e-10 7.667510271258118e-09 1.0335600067517502e-09 7.730910121524428 5.474879855648998 0.41731399283890674 7.230390241649511e-10 7.667480055988644e-09 1.0335600067517502e-09 2.90554006136521 0.9651829962377875 0.10290200252939893 7.230410120116269e-10 7.667499934455403e-09 1.0335700453774635e-09 10.278599710243157 0.7318009818271524 0.025912300303053633 7.230310230820805e-10 7.667510271258118e-09 1.033579984610843e-09 2.221669932038622 -0.7334870246959406 -0.20891999872313852 -3.6049100200801956e-14 1.2430999915803758e-13 -2.3552898938293896e-13 -111.46900144330992 47.8212006436291 49.506399557168 27.87680067283445 -41.019199664320986 -85.76829733249424 22.54030044976991 -74.10430132459342 29.572000690865547 5.43548992763912e-10 6.092750061678549e-10 -1.1526799949701492e-11 9.307169699112949e-10 9.42503012245127e-10 4.687719842074238e-12 5.435440231472222e-10 6.092670050849843e-10 -1.151130018114761e-11 -7.730910121524428 5.474879855648998 -0.41731399283890674 5.435479988405741e-10 6.092490150725673e-10 -1.1527900253896715e-11 -2.90554006136521 0.9651829962377875 -0.10290200252939893 5.435399977577036e-10 6.092709807783362e-10 -1.1526400050858485e-11 -10.278599710243157 0.7318009818271524 -0.025912300303053633 5.435520242300928e-10 6.092740122445169e-10 -1.154030022404034e-11 -2.221669932038622 -0.7334870246959406 0.20891999872313852 -2.0321699793705798e-16 0.0 -3.882510030490358e-19 -72.57110144084398 -59.50600140774177 -62.53879664452419 -1.6124699920395524 66.53839832813274 2.0823899951441915 0.7911919846204991 1.6047499572867339 10.29259989049439 2.0321699793705798e-16 0.0 3.882510030490358e-19 8.153289873571662 11.229999811622681 2.7074699115201293 -0.19234499723736875 26.253700131682006 -2.5215999736365724 5.058450052142491 -11.71210017645157 33.19779978157764
9.264020122100192 55.292898416519165 -73.8375800988706 13.574499810269993 26.19219940084792 13.127599679102412 -18.91740077436048 7.792420243868624 2.8368499160994496 5.865070206798432 -9.651800080300257 1.116980001838207 -8.127790216079067 16.172100152574945 -12.100900157218081 8.146930113680733 -25.656000522697948 -21.96599936133502 -0.0 0.0 0.0 -0.0 0.0 0.0 -1.683929985642148e-13 3.5553300252521637e-13 -8.822579921943603e-13 33.278901447782374 -19.40120014874541 63.40360104628535 -9.090269738065997 -3.6082100729388467 16.106800129015035 -0.9737870068795937 26.844099975990616 4.078810106752726 1.380780043163367e-10 2.3971999661924598e-08 5.5885399085808195e-09 3.434130118502389e-10 4.183490121110793e-08 9.640940287940412e-09 1.3808200485777197e-10 2.3971999661924598e-08 5.5885399085808195e-09 7.730910121524428 5.474879855648998 0.41731399283890674 1.38076997968957e-10 2.3971999661924598e-08 5.5885399085808195e-09 2.90554006136521 0.9651829962377875 0.10290200252939893 1.3808400512848962e-10 2.3971999661924598e-08 5.5885399085808195e-09 10.278599710243157 0.7318009818271524 0.025912300303053633 1.3807299742752175e-10 2.3971999661924598e-08 5.588549847814199e-09 2.221669932038622 -0.7334870246959406 -0.20891999872313852 -1.6829900535011378e-13 3.555339974191826e-13 -8.825399597038101e-13 -111.56700099752126 48.21679837016706 49.63349913233819 27.875400484054598 -41.02540147608736 -85.77969691821899 22.290800469578514 -73.98290154228562 29.312501313729253 2.547200093371637e-09 5.532349844162074e-09 -1.543780016704773e-09 4.4492401748124714e-09 9.237990249375106e-09 -2.500119932699273e-09 2.5471899553535896e-09 5.532339904928694e-09 -1.54376003884568e-09 -7.730910121524428 5.474879855648998 -0.41731399283890674 2.547200093371637e-09 5.532339904928694e-09 -1.543780016704773e-09 -2.90554006136521 0.9651829962377875 -0.10290200252939893 2.5471899553535896e-09 5.532339904928694e-09 -1.5437699780790594e-09 -10.278599710243157 0.7318009818271524 -0.025912300303053633 2.547200093371637e-09 5.532339904928694e-09 -1.5437899559381525e-09 -2.221669932038622 -0.7334870246959406 0.20891999872313852 -2.0321699793705798e-16 0.0 -3.882510030490358e-19 -72.64309846488509 -59.68730194907059 -62.79729881404166 -1.6077699681169375 66.50279938217864 2.0730699885782977 0.7884330150826371 1.5048300527015597 10.092899673315204 2.0321699793705798e-16 0.0 3.882510030490358e-19 8.200460013753416 11.142300182679717 2.7745199576114405 -0.19347100461485559 26.225899554212763 -2.5277699823346214 5.064259981805233 -11.683800141399267 33.27779837223142
